# xmcd CD database file
#
# Track frame offsets:
#	187
#	21857
#	38260
#
# Disc length: 797 seconds
#
# Revision: 1
# Processed by: cddbd v1.5.1PL0 Copyright (c) Steve Scherf et al.
# Submitted via: CDex 1.51
#
DISCID=14031b03
DTITLE=INFIX - We're Alive
DYEAR=1995
DGENRE=JPop
TTITLE0=We're Alive
TTITLE1=Get the Truth!
TTITLE2=We're Alive オリジナルカラオケ
EXTD=YEAR: 1995
EXTT0=
EXTT1=
EXTT2=
PLAYORDER=
